<?xml version="1.0" encoding="iso-8859-1"?>
<!-- Generator: Adobe Illustrator 18.0.0, SVG Export Plug-In . SVG Version: 6.00 Build 0)  -->
<!DOCTYPE svg PUBLIC "-//W3C//DTD SVG 1.1//EN" "http://www.w3.org/Graphics/SVG/1.1/DTD/svg11.dtd">
<svg version="1.1" id="Capa_1" xmlns="http://www.w3.org/2000/svg" xmlns:xlink="http://www.w3.org/1999/xlink" x="0px" y="0px"
	 viewBox="0 0 59.997 59.997" style="enable-background:new 0 0 59.997 59.997;" xml:space="preserve">
<g>
	<path d="M44.071,38.386c-0.895-0.51-1.83-0.779-2.704-0.779c-1.301,0-2.367,0.596-3.012,1.68c-1.021,1.221-2.287,2.646-2.592,2.867
		c-2.378,1.61-4.237,1.429-6.295-0.629L17.982,30.038c-2.045-2.045-2.233-3.928-0.631-6.292c0.224-0.31,1.649-1.575,2.869-2.595
		c0.778-0.464,1.312-1.151,1.546-1.996c0.311-1.123,0.081-2.444-0.653-3.731c-0.173-0.296-4.289-7.27-8.085-9.277
		c-0.709-0.375-1.506-0.573-2.307-0.573c-1.318,0-2.558,0.514-3.489,1.445L4.695,9.556c-7.401,7.402-6.031,16.596,3.962,26.588
		L23.362,50.85c5.745,5.746,11.224,8.659,16.281,8.659c0.001,0,0.001,0,0.001,0c3.721,0,7.188-1.581,10.306-4.698l2.537-2.537
		c1.541-1.541,1.892-3.87,0.872-5.796C51.351,42.683,44.378,38.565,44.071,38.386z"/>
	<path d="M27.362,0.488c-0.553,0-1,0.447-1,1s0.447,1,1,1c16.892,0,30.635,13.743,30.635,30.635c0,0.553,0.447,1,1,1s1-0.447,1-1
		C59.997,15.128,45.357,0.488,27.362,0.488z"/>
	<path d="M27.362,9.518c13.016,0,23.604,10.589,23.604,23.604c0,0.553,0.447,1,1,1s1-0.447,1-1
		c0-14.118-11.486-25.604-25.604-25.604c-0.553,0-1,0.447-1,1S26.809,9.518,27.362,9.518z"/>
	<path d="M27.362,16.548c9.14,0,16.575,7.436,16.575,16.575c0,0.553,0.447,1,1,1s1-0.447,1-1c0-10.242-8.333-18.575-18.575-18.575
		c-0.553,0-1,0.447-1,1S26.809,16.548,27.362,16.548z"/>
</g>
<g>
</g>
<g>
</g>
<g>
</g>
<g>
</g>
<g>
</g>
<g>
</g>
<g>
</g>
<g>
</g>
<g>
</g>
<g>
</g>
<g>
</g>
<g>
</g>
<g>
</g>
<g>
</g>
<g>
</g>
</svg>
